<svg width="512" height="512" viewBox="0 0 512 512" fill="none" xmlns="http://www.w3.org/2000/svg">
<g clip-path="url(#clip0)">
<path d="M323.24 512H132.36L74.7459 433.032C92.8658 387.372 122.308 370.503 122.308 370.503H333.291C333.291 370.503 362.734 387.372 380.853 433.032L323.24 512Z" fill="url(#paint0_linear)"/>
<path d="M132.36 465.943V512H60.8801C60.8801 494.847 62.4772 479.546 65.1637 465.943L98.7629 449.487L132.36 465.943Z" fill="url(#paint1_linear)"/>
<path d="M394.721 512H323.24V465.943L356.84 449.487L390.439 465.943C393.124 479.546 394.721 494.847 394.721 512Z" fill="url(#paint2_linear)"/>
<path d="M132.36 433.032V465.943H65.1627C67.5942 453.613 70.911 442.676 74.7459 433.032H132.36Z" fill="#FF748F"/>
<path d="M390.438 465.943H323.24V433.032H380.855C384.689 442.676 388.006 453.613 390.438 465.943Z" fill="#FF748F"/>
<path d="M227.8 426.204C193.544 392.726 137.304 448.805 220.174 497.064C224.892 499.812 230.707 499.812 235.425 497.064C318.297 448.805 262.056 392.725 227.8 426.204Z" fill="#FF748F"/>
<path d="M500.667 106.912C497.72 105.388 494.661 103.53 491.534 101.267C477 90.7525 468.59 74.0023 467.131 56.1242C464.871 28.4476 443.781 4.58452 414.37 0.556856C384.443 -3.54118 355.57 15.3936 347.402 44.4746C337.723 78.9377 359.32 113.799 393.77 120.959C433.597 169.228 475.064 157.396 502.198 139.798C514.392 131.889 513.58 113.586 500.667 106.912V106.912Z" fill="url(#paint3_linear)"/>
<path d="M393.769 120.959C418.733 151.215 444.342 157.856 466.66 154.266C456.644 122.489 439.971 93.3421 417.324 68.3989C409.745 60.0519 396.637 59.9937 388.99 68.2796C384.534 73.1069 382.858 79.8781 384.544 86.2271L393.769 120.959Z" fill="#DA6743"/>
<path d="M8.50815 226.959C8.50815 168.47 31.6838 114.87 73.7657 76.03C114.373 38.552 169.076 17.9118 227.8 17.9118C286.524 17.9118 341.228 38.552 381.835 76.03C423.917 114.87 447.091 168.47 447.091 226.959H8.50815Z" fill="url(#paint4_linear)"/>
<path d="M321.927 81.2264C320.334 81.2264 318.717 80.8521 317.207 80.0627C309.472 76.0157 301.34 72.4868 293.036 69.5749C287.721 67.7105 284.923 61.8908 286.787 56.575C288.652 51.2602 294.471 48.4625 299.787 50.3259C309.016 53.5621 318.059 57.4858 326.664 61.9887C331.656 64.5997 333.584 70.7631 330.973 75.7536C329.151 79.2345 325.6 81.2264 321.927 81.2264V81.2264Z" fill="#F5CCC2"/>
<path d="M265.456 60.7617C264.793 60.7617 264.121 60.6975 263.445 60.5618C258.92 59.6572 254.278 58.8983 249.65 58.3068C244.063 57.5918 240.113 52.483 240.827 46.8959C241.542 41.3088 246.65 37.3658 252.238 38.0726C257.337 38.7253 262.454 39.5617 267.446 40.5602C272.969 41.6647 276.551 47.0377 275.447 52.5616C274.477 57.4082 270.218 60.7617 265.456 60.7617V60.7617Z" fill="#F5CCC2"/>
<path d="M44.1166 269.942C67.8558 269.942 87.1002 250.698 87.1002 226.959C87.1002 203.22 67.8558 183.975 44.1166 183.975C20.3775 183.975 1.13312 203.22 1.13312 226.959C1.13312 250.698 20.3775 269.942 44.1166 269.942Z" fill="url(#paint5_linear)"/>
<path d="M411.485 269.942C435.224 269.942 454.468 250.698 454.468 226.959C454.468 203.22 435.224 183.975 411.485 183.975C387.746 183.975 368.501 203.22 368.501 226.959C368.501 250.698 387.746 269.942 411.485 269.942Z" fill="url(#paint6_linear)"/>
<path d="M408.968 196.791C405.964 179.159 390.456 166.387 372.576 166.822C254.901 169.687 196.603 125.508 169.278 91.4807C157.777 77.1569 137.256 73.779 121.814 83.7293C74.8071 114.019 44.1166 164.991 44.1166 226.96C44.1166 328.406 126.355 400.398 227.8 400.398C329.246 400.398 411.484 328.405 411.484 226.96C411.485 216.579 410.623 206.507 408.968 196.791Z" fill="url(#paint7_linear)"/>
<path d="M137.849 260.591C151.93 260.591 163.345 249.176 163.345 235.095C163.345 221.014 151.93 209.599 137.849 209.599C123.768 209.599 112.353 221.014 112.353 235.095C112.353 249.176 123.768 260.591 137.849 260.591Z" fill="#FBC6AB"/>
<path d="M317.751 260.591C331.832 260.591 343.247 249.176 343.247 235.095C343.247 221.014 331.832 209.599 317.751 209.599C303.67 209.599 292.255 221.014 292.255 235.095C292.255 249.176 303.67 260.591 317.751 260.591Z" fill="#FBC6AB"/>
<path d="M227.801 277.096C220.734 277.096 213.668 274.424 207.903 269.079C205.837 267.164 205.715 263.938 207.63 261.873C209.546 259.807 212.772 259.686 214.837 261.599C222.47 268.677 233.132 268.677 240.764 261.599C242.829 259.685 246.055 259.806 247.971 261.873C249.886 263.938 249.764 267.164 247.699 269.079C241.933 274.423 234.867 277.096 227.801 277.096V277.096Z" fill="#383842"/>
<path d="M137.531 243.856C130.464 243.856 123.398 241.184 117.633 235.84C115.567 233.924 115.445 230.698 117.36 228.633C119.276 226.568 122.502 226.446 124.567 228.36C132.2 235.437 142.862 235.437 150.494 228.36C152.559 226.445 155.785 226.567 157.701 228.633C159.616 230.698 159.494 233.924 157.429 235.84C151.663 241.183 144.597 243.856 137.531 243.856V243.856Z" fill="#383842"/>
<path d="M317.531 243.856C310.464 243.856 303.398 241.184 297.633 235.84C295.567 233.924 295.445 230.698 297.36 228.633C299.276 226.568 302.502 226.446 304.567 228.36C312.2 235.437 322.862 235.437 330.494 228.36C332.559 226.445 335.785 226.567 337.701 228.633C339.616 230.698 339.494 233.924 337.429 235.84C331.663 241.183 324.597 243.856 317.531 243.856V243.856Z" fill="#383842"/>
<path d="M100.865 295.209C112.78 295.209 122.438 287.447 122.438 277.872C122.438 268.297 112.78 260.536 100.865 260.536C88.9504 260.536 79.2917 268.297 79.2917 277.872C79.2917 287.447 88.9504 295.209 100.865 295.209Z" fill="#FD9BAE"/>
<path d="M354.735 295.209C366.65 295.209 376.309 287.447 376.309 277.872C376.309 268.297 366.65 260.536 354.735 260.536C342.821 260.536 333.162 268.297 333.162 277.872C333.162 287.447 342.821 295.209 354.735 295.209Z" fill="#FD9BAE"/>
</g>
<defs>
<linearGradient id="paint0_linear" x1="227.8" y1="512" x2="227.8" y2="370.503" gradientUnits="userSpaceOnUse">
<stop stop-color="#4F4C5F"/>
<stop offset="0.9783" stop-color="#6A647F"/>
</linearGradient>
<linearGradient id="paint1_linear" x1="60.8801" y1="480.744" x2="132.36" y2="480.744" gradientUnits="userSpaceOnUse">
<stop stop-color="#FBCFB9"/>
<stop offset="1" stop-color="#FBBA99"/>
</linearGradient>
<linearGradient id="paint2_linear" x1="323.24" y1="480.744" x2="394.721" y2="480.744" gradientUnits="userSpaceOnUse">
<stop stop-color="#FBBA99"/>
<stop offset="1" stop-color="#FBCFB9"/>
</linearGradient>
<linearGradient id="paint3_linear" x1="510.868" y1="77.5751" x2="345.082" y2="77.5751" gradientUnits="userSpaceOnUse">
<stop stop-color="#D86743"/>
<stop offset="0.9788" stop-color="#E99780"/>
</linearGradient>
<linearGradient id="paint4_linear" x1="227.8" y1="226.959" x2="227.8" y2="17.9118" gradientUnits="userSpaceOnUse">
<stop stop-color="#D86743"/>
<stop offset="0.9788" stop-color="#E99780"/>
</linearGradient>
<linearGradient id="paint5_linear" x1="87.1002" y1="226.959" x2="1.1321" y2="226.959" gradientUnits="userSpaceOnUse">
<stop stop-color="#FBCFB9"/>
<stop offset="1" stop-color="#FBBA99"/>
</linearGradient>
<linearGradient id="paint6_linear" x1="454.468" y1="226.959" x2="368.5" y2="226.959" gradientUnits="userSpaceOnUse">
<stop stop-color="#FBBA99"/>
<stop offset="1" stop-color="#FBCFB9"/>
</linearGradient>
<linearGradient id="paint7_linear" x1="227.8" y1="400.397" x2="227.8" y2="78.0259" gradientUnits="userSpaceOnUse">
<stop stop-color="#FBBA99"/>
<stop offset="1" stop-color="#FBCFB9"/>
</linearGradient>
<clipPath id="clip0">
<rect width="512" height="512" fill="white"/>
</clipPath>
</defs>
</svg>
