<svg id="Capa_1" enable-background="new 0 0 502 502" height="512" viewBox="0 0 502 502" width="512" xmlns="http://www.w3.org/2000/svg" xmlns:xlink="http://www.w3.org/1999/xlink"><linearGradient id="SVGID_1_" gradientUnits="userSpaceOnUse" x1="223.351" x2="223.351" y1="502" y2="363.267"><stop offset="0" stop-color="#4f4c5f"/><stop offset=".9783" stop-color="#6a647f"/></linearGradient><linearGradient id="lg1"><stop offset="0" stop-color="#fbcfb9"/><stop offset="1" stop-color="#fbba99"/></linearGradient><linearGradient id="SVGID_2_" gradientUnits="userSpaceOnUse" x1="59.691" x2="129.775" xlink:href="#lg1" y1="471.354" y2="471.354"/><linearGradient id="lg2"><stop offset="0" stop-color="#fbba99"/><stop offset="1" stop-color="#fbcfb9"/></linearGradient><linearGradient id="SVGID_3_" gradientUnits="userSpaceOnUse" x1="316.927" x2="387.012" xlink:href="#lg2" y1="471.354" y2="471.354"/><linearGradient id="lg3"><stop offset="0" stop-color="#d86743"/><stop offset=".9788" stop-color="#e99780"/></linearGradient><linearGradient id="SVGID_4_" gradientUnits="userSpaceOnUse" x1="500.89" x2="338.342" xlink:href="#lg3" y1="76.06" y2="76.06"/><linearGradient id="SVGID_5_" gradientUnits="userSpaceOnUse" x1="223.351" x2="223.351" xlink:href="#lg3" y1="222.526" y2="17.562"/><linearGradient id="SVGID_6_" gradientUnits="userSpaceOnUse" x1="85.399" x2="1.11" xlink:href="#lg1" y1="222.526" y2="222.526"/><linearGradient id="SVGID_7_" gradientUnits="userSpaceOnUse" x1="445.592" x2="361.303" xlink:href="#lg2" y1="222.526" y2="222.526"/><linearGradient id="SVGID_8_" gradientUnits="userSpaceOnUse" x1="223.351" x2="223.351" xlink:href="#lg2" y1="392.577" y2="76.502"/><g><path d="m316.927 502h-187.152l-56.489-77.426c17.766-44.768 46.633-61.307 46.633-61.307h206.862s28.868 16.539 46.633 61.307z" fill="url(#SVGID_1_)"/><path d="m129.775 456.843v45.157h-70.084c0-16.818 1.566-31.82 4.2-45.157l32.943-16.135z" fill="url(#SVGID_2_)"/><path d="m387.012 502h-70.085v-45.157l32.943-16.135 32.943 16.135c2.633 13.337 4.199 28.339 4.199 45.157z" fill="url(#SVGID_3_)"/><g fill="#ff748f"><path d="m129.775 424.574v32.269h-65.885c2.384-12.09 5.636-22.813 9.396-32.269z"/><path d="m382.812 456.843h-65.885v-32.269h56.489c3.76 9.456 7.012 20.179 9.396 32.269z"/><path d="m223.351 417.88c-33.587-32.824-88.729 22.159-7.477 69.476 4.626 2.694 10.327 2.694 14.953 0 81.253-47.317 26.111-102.301-7.476-69.476z"/></g><path d="m490.888 104.824c-2.889-1.494-5.888-3.316-8.954-5.535-14.25-10.309-22.496-26.732-23.927-44.261-2.216-27.136-22.894-50.533-51.73-54.482-29.343-4.018-57.652 14.547-65.66 43.06-9.49 33.79 11.685 67.97 45.462 74.991 39.049 47.326 79.706 35.725 106.31 18.471 11.956-7.755 11.16-25.7-1.501-32.244z" fill="url(#SVGID_4_)"/><path d="m386.078 118.597c24.477 29.665 49.585 36.176 71.468 32.656-9.821-31.156-26.168-59.734-48.373-84.19-7.431-8.184-20.283-8.241-27.78-.117-4.369 4.733-6.013 11.372-4.36 17.597z" fill="#da6743"/><path d="m8.342 222.526c0-57.346 22.723-109.9 63.983-147.981 39.814-36.746 93.449-56.983 151.026-56.983s111.212 20.237 151.026 56.983c41.26 38.081 63.982 90.635 63.982 147.981z" fill="url(#SVGID_5_)"/><g><path d="m315.639 79.64c-1.562 0-3.147-.367-4.627-1.141-7.584-3.968-15.558-7.428-23.699-10.283-5.212-1.828-7.955-7.534-6.127-12.746 1.828-5.211 7.534-7.954 12.746-6.127 9.049 3.173 17.915 7.02 26.352 11.435 4.894 2.56 6.785 8.603 4.225 13.496-1.787 3.413-5.268 5.366-8.87 5.366z" fill="#f5ccc2"/></g><g><path d="m260.271 59.575c-.65 0-1.309-.063-1.971-.196-4.437-.887-8.988-1.631-13.526-2.211-5.478-.701-9.351-5.71-8.651-11.188.701-5.478 5.71-9.344 11.188-8.651 5 .64 10.017 1.46 14.911 2.439 5.416 1.083 8.928 6.351 7.845 11.767-.951 4.752-5.127 8.04-9.796 8.04z" fill="#f5ccc2"/></g><circle cx="43.255" cy="222.526" fill="url(#SVGID_6_)" r="42.144"/><circle cx="403.448" cy="222.526" fill="url(#SVGID_7_)" r="42.144"/><path d="m400.98 192.947c-2.945-17.287-18.15-29.81-35.681-29.383-115.377 2.809-172.536-40.507-199.327-73.87-11.277-14.044-31.397-17.356-46.537-7.6-46.089 29.698-76.18 79.675-76.18 140.433 0 99.465 80.632 170.051 180.096 170.051s180.096-70.587 180.096-170.051c.001-10.178-.844-20.053-2.467-29.58z" fill="url(#SVGID_8_)"/><g><ellipse cx="98.895" cy="272.445" fill="#fd9bae" rx="21.152" ry="16.998"/><ellipse cx="347.807" cy="272.445" fill="#fd9bae" rx="21.152" ry="16.998"/><circle cx="135.157" cy="230.503" fill="#fff" r="41.942"/><circle cx="311.545" cy="230.503" fill="#fff" r="41.942"/><g fill="#383842"><g><circle cx="135.157" cy="230.503" r="24.998"/><circle cx="311.545" cy="230.503" r="24.998"/></g><path d="m223.352 271.684c-6.929 0-13.857-2.62-19.51-7.86-2.025-1.878-2.145-5.041-.267-7.066s5.041-2.144 7.066-.268c7.484 6.939 17.938 6.939 25.421 0 2.024-1.877 5.187-1.758 7.066.268 1.877 2.025 1.758 5.188-.267 7.066-5.653 5.239-12.581 7.86-19.509 7.86z"/></g></g></g></svg>